<svg xmlns="http://www.w3.org/2000/svg" xmlns:xlink="http://www.w3.org/1999/xlink" version="1.1" id="Layer_1" x="0px" y="0px" width="100px" height="100px" viewBox="0 0 100 100" enable-background="new 0 0 100 100" xml:space="preserve">
<g id="Layer_1_1_">
</g>
<path d="M46.71,78H14.76c0.34-2.84,2.49-6.49,8.6-11.029c0,0,1.97,2.299,7.36,2.299c5.4,0,7.18-2.299,7.18-2.299  C44.25,71.51,46.43,75.16,46.71,78z"/>
<circle cx="30.54" cy="56.152" r="10.814"/>
<path d="M85.62,78H55.67c0.85-2.561,3.11-5.609,7.88-9.16c0,0,1.891,2.2,7.07,2.2c5.189,0,6.899-2.2,6.899-2.2  C82.48,72.391,84.8,75.439,85.62,78z"/>
<circle cx="70.447" cy="58.444" r="10.39"/>
<path d="M65.538,54.115c-0.646,0.646-1.695,0.646-2.343,0l-5.67-5.673c-0.646-0.646-0.646-1.695,0-2.341l0,0  c0.646-0.646,1.693-0.646,2.342,0l5.671,5.672C66.184,52.42,66.186,53.469,65.538,54.115L65.538,54.115z"/>
<path d="M75.18,54.115c0.646,0.646,1.693,0.646,2.342,0l5.672-5.673c0.646-0.646,0.646-1.695,0-2.341l0,0  c-0.646-0.646-1.694-0.646-2.342,0l-5.672,5.672C74.533,52.42,74.533,53.469,75.18,54.115L75.18,54.115z"/>
<path d="M95.333,88.417c0,1.703-1.38,3.083-3.083,3.083h-84c-1.703,0-3.083-1.38-3.083-3.083v-5c0-1.703,1.38-3.083,3.083-3.083h84  c1.703,0,3.083,1.38,3.083,3.083V88.417z"/>
<path d="M52.79,5.67c-10.19,0-18.46,7.7-18.46,17.21c0,2.88,0.97,5.49,2.1,7.99c3.23,7.09-2.1,9.22-2.1,9.22  c3.26,2.68,13.78,0,18.46,0c10.19,0,18.46-7.7,18.46-17.21C71.25,13.37,62.98,5.67,52.79,5.67z M54.3,35.46  c-0.54,0.53-1.29,0.8-2.25,0.8c-0.979,0-1.75-0.26-2.29-0.78c-0.53-0.52-0.8-1.26-0.8-2.21c0-0.98,0.26-1.73,0.79-2.23  c0.52-0.51,1.29-0.76,2.3-0.76c0.97,0,1.73,0.26,2.26,0.78c0.53,0.51,0.801,1.25,0.801,2.21C55.11,34.2,54.84,34.93,54.3,35.46z   M60.1,19.44c-0.59,0.93-1.699,1.99-3.34,3.16c-1.12,0.83-1.84,1.47-2.14,1.9c-0.29,0.43-0.44,1-0.44,1.7v1.06h-4.66v-1.3  c0-1.13,0.24-2.11,0.72-2.94c0.479-0.83,1.359-1.71,2.64-2.65c1.23-0.88,2.04-1.6,2.43-2.15c0.391-0.55,0.591-1.16,0.591-1.84  c0-0.76-0.28-1.34-0.841-1.74c-0.569-0.4-1.35-0.6-2.359-0.6c-1.76,0-3.76,0.57-6.01,1.72l-1.92-3.85c2.62-1.46,5.39-2.19,8.32-2.19  c2.41,0,4.33,0.58,5.75,1.74c1.43,1.16,2.141,2.7,2.141,4.64C60.98,17.39,60.69,18.5,60.1,19.44z"/>
</svg>